<?xml version="1.0" encoding="utf-8"?>
<!-- Generator: Adobe Illustrator 25.2.0, SVG Export Plug-In . SVG Version: 6.00 Build 0)  -->
<svg version="1.1" id="Layer_1" xmlns="http://www.w3.org/2000/svg" xmlns:xlink="http://www.w3.org/1999/xlink" x="0px" y="0px"
	 viewBox="0 0 512 512" style="enable-background:new 0 0 512 512;" xml:space="preserve">
<style type="text/css">
	.st0{fill:#212121;}
	.st1{fill:#C40000;}
</style>
<g transform="translate(176,336)">
	<path class="st0" d="M2-26.4h32c4.4,0,8,3.6,8,8v32c0,4.4-3.6,8-8,8H2c-4.4,0-8-3.6-8-8v-32C-6-22.8-2.5-26.4,2-26.4z"/>
	<path class="st0" d="M66-26.4h32c4.4,0,8,3.6,8,8v32c0,4.4-3.6,8-8,8H66c-4.4,0-8-3.6-8-8v-32C58-22.8,61.5-26.4,66-26.4z"/>
	<path class="st0" d="M130-26.4h32c4.4,0,8,3.6,8,8v32c0,4.4-3.6,8-8,8h-32c-4.4,0-8-3.6-8-8v-32C122-22.8,125.5-26.4,130-26.4z"/>
	<path class="st0" d="M2,37.6h32c4.4,0,8,3.6,8,8v32c0,4.4-3.6,8-8,8H2c-4.4,0-8-3.6-8-8v-32C-6,41.2-2.5,37.6,2,37.6z"/>
	<path class="st0" d="M66,37.6h32c4.4,0,8,3.6,8,8v32c0,4.4-3.6,8-8,8H66c-4.4,0-8-3.6-8-8v-32C58,41.2,61.5,37.6,66,37.6z"/>
	<path class="st0" d="M130,37.6h32c4.4,0,8,3.6,8,8v32c0,4.4-3.6,8-8,8h-32c-4.4,0-8-3.6-8-8v-32C122,41.2,125.5,37.6,130,37.6z"/>
	<path class="st0" d="M2,101.6h32c4.4,0,8,3.6,8,8v32c0,4.4-3.6,8-8,8H2c-4.4,0-8-3.6-8-8v-32C-6,105.2-2.5,101.6,2,101.6z"/>
	<path class="st0" d="M66,101.6h32c4.4,0,8,3.6,8,8v32c0,4.4-3.6,8-8,8H66c-4.4,0-8-3.6-8-8v-32C58,105.2,61.5,101.6,66,101.6z"/>
	<path class="st0" d="M130,101.6h32c4.4,0,8,3.6,8,8v32c0,4.4-3.6,8-8,8h-32c-4.4,0-8-3.6-8-8v-32C122,105.2,125.5,101.6,130,101.6z
		"/>
</g>
<path class="st1" d="M352.1,47.9C247.7-3.3,121.2,40,70,144.4C23.7,239,54.9,351.7,138.8,410.1v-51.9C88.4,308,72.9,229.3,105.9,162
	c41.4-84.6,144-119.7,228.5-78.2s119.7,144,78.2,228.5c-9.1,18.6-21.4,35.1-36.2,49.1v51c30.7-20.5,55.6-48.9,72.1-82.4
	C499.7,225.5,456.4,99,352.1,47.9z"/>
<g>
	<path class="st0" d="M117.7,265.8v-6.2c0-4.2,0.7-8,2-11.3c1.3-3.4,3-6.4,5-9.1c2-2.7,4.2-5.1,6.6-7.2s4.8-4,7.1-5.8
		c2.3-1.7,4.3-3.4,6-5s3.2-3.1,4.4-4.7c1.3-1.6,2.3-3.2,2.9-5c0.6-1.7,0.9-3.8,0.9-6.1c0-3-0.9-5.4-2.6-7.4c-1.8-2-4.3-3-7.6-3
		c-2.3,0-5,0.6-8.2,1.9c-3.2,1.3-6.3,3.3-9.3,5.9l-8.4-11.1c4.3-3.8,8.7-6.6,13.3-8.3c4.6-1.8,9.6-2.7,15.2-2.7
		c7.4,0,13.3,2.2,17.7,6.5c4.4,4.4,6.5,9.6,6.5,15.8c0,4.8-0.5,8.7-1.6,11.6c-1.1,2.9-2.5,5.6-4.3,8s-3.8,4.7-6.2,6.8
		s-4.9,4-7.5,5.9c-1.8,1.4-3.6,2.8-5.3,4.1s-3.1,2.6-4.4,3.9c-1.2,1.4-2.2,2.7-2.9,3.9s-1.1,2.4-1.1,3.6h33.5v14.8h-51.7V265.8z"/>
	<path class="st0" d="M207.8,267.2c-9.3,0-16.2-3.5-20.5-10.5c-4.3-7-6.5-17.5-6.5-31.3c0-14.5,2.4-25.6,7.1-33.2
		c4.7-7.6,11.4-11.4,20.1-11.4c9.8,0,16.7,3.5,20.8,10.6s6.1,17.8,6.1,32c0,14.1-2.3,24.9-6.8,32.5
		C223.6,263.5,216.8,267.2,207.8,267.2z M207.8,194.5c-3.6,0-6.2,2.5-7.8,7.6s-2.3,12.7-2.3,22.9c0,9.5,0.8,16.7,2.4,21.4
		c1.6,4.8,4.2,7.1,7.7,7.1c3.8,0,6.5-2.4,7.9-7.3c1.4-4.9,2.2-12.3,2.2-22.2c0-9.8-0.7-17.2-2.2-22.1
		C214.3,196.9,211.6,194.5,207.8,194.5z"/>
	<path class="st0" d="M255.7,223.3c-2.8,0-5.2-0.9-7-2.7c-1.9-1.8-2.8-4.2-2.8-7s0.9-5.2,2.8-7.1c1.9-1.9,4.2-2.8,7-2.8
		c2.9,0,5.2,0.9,7.1,2.8c1.8,1.9,2.8,4.2,2.8,7.1s-0.9,5.2-2.8,7C260.9,222.4,258.6,223.3,255.7,223.3z M255.7,267.2
		c-2.8,0-5.2-0.9-7-2.8c-1.9-1.8-2.8-4.2-2.8-7c0-2.9,0.9-5.2,2.8-7.1c1.9-1.8,4.2-2.7,7-2.7c2.9,0,5.2,0.9,7.1,2.7
		c1.8,1.8,2.8,4.2,2.8,7.1c0,2.8-0.9,5.2-2.8,7C260.9,266.3,258.6,267.2,255.7,267.2z"/>
	<path class="st0" d="M303.5,267.2c-9.3,0-16.2-3.5-20.5-10.5c-4.3-7-6.5-17.5-6.5-31.3c0-14.5,2.4-25.6,7.1-33.2
		c4.7-7.6,11.4-11.4,20.1-11.4c9.8,0,16.7,3.5,20.8,10.6c4.1,7.1,6.1,17.8,6.1,32c0,14.1-2.3,24.9-6.8,32.5
		C319.3,263.5,312.6,267.2,303.5,267.2z M303.5,194.5c-3.6,0-6.2,2.5-7.8,7.6c-1.6,5.1-2.3,12.7-2.3,22.9c0,9.5,0.8,16.7,2.4,21.4
		c1.6,4.8,4.2,7.1,7.7,7.1c3.8,0,6.5-2.4,7.9-7.3c1.4-4.9,2.2-12.3,2.2-22.2c0-9.8-0.7-17.2-2.2-22.1
		C310,196.9,307.3,194.5,303.5,194.5z"/>
	<path class="st0" d="M368.4,267.2c-9.3,0-16.2-3.5-20.5-10.5c-4.3-7-6.5-17.5-6.5-31.3c0-14.5,2.4-25.6,7.1-33.2
		c4.7-7.6,11.4-11.4,20.1-11.4c9.8,0,16.7,3.5,20.8,10.6s6.1,17.8,6.1,32c0,14.1-2.3,24.9-6.8,32.5
		C384.2,263.5,377.4,267.2,368.4,267.2z M368.4,194.5c-3.6,0-6.2,2.5-7.8,7.6s-2.3,12.7-2.3,22.9c0,9.5,0.8,16.7,2.4,21.4
		c1.6,4.8,4.2,7.1,7.7,7.1c3.8,0,6.5-2.4,7.9-7.3c1.4-4.9,2.2-12.3,2.2-22.2c0-9.8-0.7-17.2-2.2-22.1
		C374.8,196.9,372.2,194.5,368.4,194.5z"/>
</g>
</svg>
