<?xml version="1.0" encoding="utf-8"?>
<!-- Generator: Adobe Illustrator 25.2.0, SVG Export Plug-In . SVG Version: 6.00 Build 0)  -->
<svg version="1.1" id="Layer_1" xmlns="http://www.w3.org/2000/svg" xmlns:xlink="http://www.w3.org/1999/xlink" x="0px" y="0px"
	 viewBox="0 0 512 512" style="enable-background:new 0 0 512 512;" xml:space="preserve">
<style type="text/css">
	.st0{font-family:'Arial-BoldMT';}
	.st1{font-size:120.0652px;}
	.st2{fill:#C40000;}
</style>
<text transform="matrix(0.9353 0 0 1 115.3083 272.2979)" class="st0 st1">20:00</text>
<g transform="translate(176,336)">
	<path d="M2-26.4h32c4.4,0,8,3.6,8,8v32c0,4.4-3.6,8-8,8H2c-4.4,0-8-3.6-8-8v-32C-6-22.8-2.5-26.4,2-26.4z"/>
	<path d="M66-26.4h32c4.4,0,8,3.6,8,8v32c0,4.4-3.6,8-8,8H66c-4.4,0-8-3.6-8-8v-32C58-22.8,61.5-26.4,66-26.4z"/>
	<path d="M130-26.4h32c4.4,0,8,3.6,8,8v32c0,4.4-3.6,8-8,8h-32c-4.4,0-8-3.6-8-8v-32C122-22.8,125.5-26.4,130-26.4z"/>
	<path d="M2,37.6h32c4.4,0,8,3.6,8,8v32c0,4.4-3.6,8-8,8H2c-4.4,0-8-3.6-8-8v-32C-6,41.2-2.5,37.6,2,37.6z"/>
	<path d="M66,37.6h32c4.4,0,8,3.6,8,8v32c0,4.4-3.6,8-8,8H66c-4.4,0-8-3.6-8-8v-32C58,41.2,61.5,37.6,66,37.6z"/>
	<path d="M130,37.6h32c4.4,0,8,3.6,8,8v32c0,4.4-3.6,8-8,8h-32c-4.4,0-8-3.6-8-8v-32C122,41.2,125.5,37.6,130,37.6z"/>
	<path d="M2,101.6h32c4.4,0,8,3.6,8,8v32c0,4.4-3.6,8-8,8H2c-4.4,0-8-3.6-8-8v-32C-6,105.2-2.5,101.6,2,101.6z"/>
	<path d="M66,101.6h32c4.4,0,8,3.6,8,8v32c0,4.4-3.6,8-8,8H66c-4.4,0-8-3.6-8-8v-32C58,105.2,61.5,101.6,66,101.6z"/>
	<path d="M130,101.6h32c4.4,0,8,3.6,8,8v32c0,4.4-3.6,8-8,8h-32c-4.4,0-8-3.6-8-8v-32C122,105.2,125.5,101.6,130,101.6z"/>
</g>
<path class="st2" d="M352.1,47.9C247.7-3.3,121.2,40,70,144.4C23.7,239,54.9,351.7,138.8,410.1v-51.9C88.4,308,72.9,229.3,105.9,162
	c41.4-84.6,144-119.7,228.5-78.2s119.7,144,78.2,228.5c-9.1,18.6-21.4,35.1-36.2,49.1v51c30.7-20.5,55.6-48.9,72.1-82.4
	C499.7,225.5,456.4,99,352.1,47.9z"/>
</svg>
